<svg viewBox="0 0 320.131 156.716" height="156.716" width="320.131" xml:space="preserve" version="1.1" xmlns="http://www.w3.org/2000/svg"><path d="M264.7 155.237c36.74-.028 11.078 0 55.431 0L218.856 0 116.105 156.716h57.657l45.833-73.922c9.402 15.095 18.52 29.729 28.09 45.094h16.263l-45.832-72.445-53.224 85.75h-19.96l73.184-117.537 72.444 116.796c-43.067.017-21.385-.03-35.06 0zM55.4 1.48H0l101.274 155.236L204.025 0h-57.657l-45.833 73.924c-9.402-15.097-18.52-29.73-28.091-45.094H56.18l45.833 72.444 53.224-85.75h19.96L102.014 133.06 29.57 16.264c42.488.022 35.05 0 35.05 0z" fill="#fff" fill-opacity="1" fill-rule="evenodd" stroke="none" stroke-width="1.25"/></svg>